<svg width="198" height="43" viewBox="0 0 198 43" fill="none" xmlns="http://www.w3.org/2000/svg">
<path d="M159.377 38.8173C159.377 41.5922 158.788 41.7842 155.994 41.7842C155.994 41.7842 151.77 41.7842 151.766 41.7842C150.979 41.7842 149.782 40.8791 149.782 38.9042C149.782 35.2515 148.291 31.7177 145.347 29.4868C143.889 28.3805 142.156 27.7679 140.369 27.4525C139.212 27.2468 137.082 27.2056 137.082 25.5736V20.9243C137.082 19.7632 138.028 18.8214 139.185 18.8214L144.346 18.7483C148.808 18.7483 150.463 18.0214 150.463 13.9436C150.463 9.86582 149.169 9.08866 144.346 9.08866H139.313C134.892 9.08866 134.11 10.483 134.11 14.6842V39.6905C134.11 40.8516 133.164 41.7934 132.008 41.7934H127.294C126.133 41.7934 125.191 40.8471 125.191 39.6905V12.6727C125.191 3.64854 128.437 0.165039 137.736 0.165039H145.26C157.325 0.165039 159.382 7.20519 159.382 13.9391C159.382 19.8683 158.522 26.049 150.614 26.049C154.961 26.8719 159.382 30.4971 159.382 38.8127L159.377 38.8173Z" fill="#794CFF"/>
<path d="M79.5126 9.08409C80.6783 9.08409 81.6201 8.14235 81.6201 6.97661V2.27251C81.6201 1.10677 80.6783 0.165039 79.5126 0.165039H58.3281C53.336 0.165039 49.2856 3.84512 49.2856 11.4384V30.52C49.2856 35.5121 53.336 41.7934 58.3281 41.7934H79.5126C80.6783 41.7934 81.6201 40.8516 81.6201 39.6859V34.9818C81.6201 33.816 80.6783 32.8743 79.5126 32.8743H62.1088C60.3625 32.8743 58.9499 31.4571 58.9499 29.7154V26.2867C58.9499 25.8204 59.3293 25.4456 59.791 25.4456H79.5126C80.6783 25.4456 81.6201 24.5038 81.6201 23.3381V18.634C81.6201 17.4683 80.6783 16.5265 79.5126 16.5265H59.791C59.3247 16.5265 58.9499 16.1471 58.9499 15.6854V12.2567C58.9499 10.5104 60.367 9.0978 62.1088 9.0978H79.5126V9.08409Z" fill="#794CFF"/>
<path d="M196.201 8.27904C193.847 2.26748 189.595 0 182.189 0H179.218C171.816 0 167.487 2.26748 165.133 8.27904C164.182 10.7157 163.684 13.6597 163.684 17.0929V39.6854C163.684 40.8466 164.625 41.7883 165.786 41.7883H170.5C171.661 41.7883 172.603 40.8466 172.603 39.6854V17.2758C172.603 11.1591 174.93 8.91905 181.01 8.91905C186.628 8.91905 188.726 10.7248 188.726 18.2038C188.726 18.5558 188.448 18.8484 188.091 18.8484H177.64C176.475 18.8484 175.533 19.7901 175.533 20.9559V25.66C175.533 26.8257 176.475 27.7675 177.64 27.7675H188.1C188.448 27.7675 188.731 28.0509 188.731 28.3983V39.6854C188.731 40.8466 189.673 41.7883 190.834 41.7883H195.547C196.708 41.7883 197.65 40.8466 197.65 39.6854V17.0975C197.65 13.6643 197.152 10.7202 196.201 8.28361V8.27904Z" fill="#794CFF"/>
<path d="M118.558 0.62207H113.845C112.684 0.62207 111.742 1.5638 111.742 2.72497V24.0054C111.742 30.1176 109.246 33.3908 103.435 33.3999C97.6205 33.3908 95.129 30.1176 95.129 24.0054V2.72497C95.129 1.5638 94.1827 0.62207 93.0261 0.62207H88.3129C87.1517 0.62207 86.21 1.5638 86.21 2.72497V25.1529C86.21 37.0571 94.5667 42.2504 101.968 42.2504H104.908C112.309 42.2504 120.666 37.0571 120.666 25.1529V2.72497C120.666 1.5638 119.719 0.62207 118.563 0.62207H118.558Z" fill="#794CFF"/>
<path d="M39.1139 14.0442V28.5222C39.1139 29.3588 38.7071 31.5532 38.1722 32.5589C35.1276 38.2962 26.5514 39.8642 24.9742 39.8642L26.0759 34.6801H18.4872C15.086 34.6801 12.3293 31.9235 12.3293 28.5222V21.9255C12.5625 21.9255 12.8048 21.9164 13.0471 21.8935C17.9752 20.9701 21.7421 16.7643 22.0073 11.635C22.0164 11.4476 22.0164 11.2602 22.0164 11.0727C22.0164 10.7207 21.9936 10.3596 21.9616 10.0167C21.9616 9.92984 21.9524 9.82926 21.9296 9.7424C21.9158 9.61897 21.9067 9.50926 21.8838 9.39954C21.8747 9.25782 21.8427 9.11611 21.8198 8.98353C21.797 8.8601 21.7741 8.74124 21.7421 8.61781C21.6827 8.37095 21.6187 8.12408 21.5501 7.89551H32.9652C36.3573 7.89551 39.1139 10.6521 39.1139 14.0442Z" fill="#794CFF"/>
<path d="M22.0165 11.0727C22.0165 11.2601 22.0165 11.4476 22.0073 11.635C21.7422 16.7642 17.9752 20.97 13.0471 21.8935C12.8048 21.9164 12.5626 21.9255 12.3294 21.9255V26.4833C10.3911 26.4833 0.397723 23.1141 0.0228576 11.7538C0 11.5344 0 11.3058 0 11.0727C0 10.7207 0.0228576 10.3595 0.0548583 10.0167C0.0548583 9.92981 0.0685729 9.82924 0.086859 9.74238C0.100574 9.61895 0.109717 9.50923 0.132574 9.39951C0.141717 9.2578 0.17829 9.11608 0.196576 8.9835C0.219433 8.86007 0.242291 8.74121 0.274292 8.61778C0.342865 8.33435 0.420581 8.05548 0.498296 7.79491C0.553155 7.61662 0.608013 7.45204 0.672015 7.28747C0.726873 7.12289 0.795446 6.95832 0.86859 6.78917C0.937163 6.6246 1.01488 6.46002 1.0926 6.30459C1.24346 5.97544 1.40803 5.66915 1.59546 5.372C1.68689 5.21656 1.7829 5.06113 1.88347 4.91942C1.90633 4.88741 1.92918 4.86456 1.93833 4.83256C2.12576 4.56741 2.31319 4.31597 2.50977 4.07368C2.6332 3.92739 2.75206 3.79482 2.86178 3.66682C2.98521 3.53424 3.10407 3.41081 3.2275 3.29195C3.97266 2.54222 4.84582 1.89306 5.77841 1.38562C5.93384 1.29877 6.08927 1.22105 6.24013 1.15705C6.39557 1.07933 6.56014 1.00162 6.72472 0.933043C6.89386 0.859899 7.05844 0.791326 7.22301 0.736468C7.39673 0.672466 7.56131 0.617608 7.7396 0.56275C7.90417 0.50332 8.08246 0.462176 8.25618 0.416461C8.39789 0.375317 8.53047 0.338745 8.67676 0.320459C8.88248 0.2656 9.11563 0.229028 9.33506 0.197027C9.51335 0.165027 9.70078 0.142169 9.88364 0.119311C10.0299 0.110168 10.1716 0.0964538 10.3271 0.0873108C10.5557 0.0781677 10.7797 0.0644531 11.0082 0.0644531C11.2368 0.0644531 11.4608 0.0781677 11.6894 0.0873108C11.8448 0.0964538 11.9865 0.110168 12.1328 0.119311C12.3203 0.142169 12.5077 0.165027 12.6814 0.197027C12.9008 0.229028 13.134 0.2656 13.3443 0.320459C13.486 0.338745 13.6186 0.375317 13.7603 0.416461C13.9386 0.462176 14.1123 0.50332 14.2769 0.56275C14.4552 0.617608 14.6197 0.672466 14.7935 0.736468C14.9626 0.791326 15.1272 0.859899 15.2918 0.933043C15.4563 1.00162 15.6209 1.07933 15.7763 1.15705C15.9272 1.22105 16.0826 1.29877 16.2381 1.38562C17.1752 1.89306 18.0438 2.54222 18.7935 3.29195C18.9124 3.41081 19.0313 3.53424 19.1547 3.66682C19.2644 3.79482 19.3878 3.92739 19.5067 4.07368C19.7033 4.31597 19.8907 4.56741 20.0781 4.83256C20.0919 4.86456 20.1101 4.88741 20.133 4.91942C20.2336 5.06113 20.3342 5.21656 20.421 5.372C20.6084 5.66915 20.773 5.97544 20.9285 6.30459C21.0062 6.46002 21.0793 6.6246 21.1479 6.78917C21.2256 6.95832 21.2896 7.12289 21.3445 7.28747C21.413 7.45204 21.4679 7.61662 21.5228 7.79491C21.5319 7.82691 21.541 7.85891 21.5502 7.89548C21.6188 8.12406 21.6828 8.37092 21.7422 8.61778C21.7742 8.74121 21.797 8.86007 21.8199 8.9835C21.8428 9.11608 21.8748 9.2578 21.8839 9.39951C21.9068 9.50923 21.9159 9.61895 21.9296 9.74238C21.9525 9.82924 21.9616 9.92981 21.9616 10.0167C21.9936 10.3595 22.0165 10.7207 22.0165 11.0727Z" fill="#00D4FF"/>
</svg>
